<svg width="196" height="164" viewBox="0 0 196 164" fill="none" xmlns="http://www.w3.org/2000/svg">
<path fill-rule="evenodd" clip-rule="evenodd" d="M153.791 0.00390625C174.875 0.321638 189.896 20.7334 186.898 41.6992L186.637 43.5977C184.022 63.1961 184.507 81.9999 196 82C184.137 82.0001 184.001 102.037 186.898 122.301C189.896 143.267 174.875 163.678 153.791 163.996L153.292 164H42.708C21.6959 164 6.55875 144.07 8.97266 123.291L9.10156 122.301C11.9989 102.036 11.8636 82 0 82C11.4928 82 11.9782 63.1962 9.36328 43.5977L9.10156 41.6992C6.08035 20.5684 21.3623 0.000203389 42.708 0H153.292L153.791 0.00390625ZM42.708 12C29.8307 12.0002 18.8209 24.8965 20.9805 40.001C22.4645 50.3805 23.3803 61.9028 21.9473 71.2646C21.4266 74.6662 20.5012 78.4597 18.7334 82C20.5012 85.5403 21.4266 89.3338 21.9473 92.7354C23.3803 102.097 22.4645 113.619 20.9805 123.999C18.8209 139.104 29.8307 152 42.708 152H153.292C166.169 152 177.179 139.104 175.02 123.999C173.536 113.619 172.62 102.097 174.053 92.7354C174.573 89.3339 175.498 85.5402 177.266 82C175.498 78.4598 174.573 74.6661 174.053 71.2646C172.62 61.9028 173.536 50.3805 175.02 40.001C177.179 24.8965 166.169 12.0002 153.292 12H42.708Z" fill="#6672FF"/>
<path d="M58.9892 48.8637C61.259 44.3812 64.8836 41.5357 69.2892 39.6578C71.7963 38.589 74.4122 37.7649 77.0085 36.9206C78.0754 36.5736 78.4261 36.0238 78.4829 34.8932C78.7235 30.1105 77.6111 25.397 77.8419 20.6219C77.8635 20.1755 77.8187 19.7231 77.8713 19.2814C78.0147 18.0773 78.7994 17.6852 79.8806 18.2615C80.0981 18.3774 80.3092 18.5213 80.4892 18.6889C85.7401 23.5782 90.9303 28.6043 94.298 34.9884C96.2093 38.6114 98.1291 42.1027 100.983 45.0454C101.289 45.3611 101.519 45.751 101.857 46.2034C101.006 47.2495 100.148 48.2662 99.3316 49.3153C92.9969 57.4544 89.4771 66.7256 88.4883 76.9385C87.2466 89.7626 90.4289 101.64 96.4847 112.869C97.9038 115.5 99.4451 118.038 101.279 120.402C102.418 121.869 102.367 122.075 100.921 123.446C100.383 123.313 100.168 122.821 99.9057 122.428C96.2937 117.01 91.0254 113.858 85.0955 111.644C82.7721 110.777 80.4002 110.03 78.0228 109.321C76.9945 109.014 76.5934 108.519 76.6233 107.422C76.7045 104.452 77.0941 101.496 76.6992 98.5024C76.3007 95.4816 75.7504 92.5177 74.5232 89.727C72.959 86.17 70.01 84.619 66.2842 84.2466C63.2894 83.9472 60.3311 84.3743 57.3704 84.6658C55.0759 84.8917 52.9273 84.4524 50.8345 83.5895C50.4713 83.4398 50.0194 83.2775 49.8265 82.9798C48.5488 81.0082 46.4167 80.0412 44.7456 78.5397C44.2743 78.1163 43.8639 77.5724 43.5759 77.0071C42.2229 74.3516 41.08 71.5952 40.2154 68.7496C39.577 66.6486 40.3725 65.5204 42.4045 64.734C46.4954 63.1505 50.2677 60.9309 54.0113 58.6765C56.3108 57.2917 57.2264 54.98 57.8361 52.5148C58.1341 51.3096 58.4206 50.1022 58.9892 48.8637Z" fill="#6672FF"/>
<path d="M70.72 23.6781C72.3958 25.2385 73.976 26.7465 75.5964 28.2101C76.3569 28.897 76.6896 29.6555 76.5794 30.7023C76.4707 31.7336 76.4882 32.7886 76.5597 33.8257C76.6292 34.8345 76.2937 35.378 75.2733 35.6337C73.9775 35.9586 72.6981 36.3793 71.4521 36.863C70.4342 37.2582 69.979 36.9367 69.7748 35.9349C69.023 32.2465 68.2232 28.5677 67.504 24.8732C67.3397 24.0289 67.0755 22.9667 67.9891 22.4092C68.9007 21.8529 69.5171 22.7616 70.1865 23.2227C70.3491 23.3347 70.4899 23.4784 70.72 23.6781Z" fill="#6672FF"/>
<path d="M128.81 90.8733C125.808 93.9788 125.167 97.8397 124.902 101.795C124.772 103.724 124.824 105.673 124.931 107.605C124.983 108.556 124.661 108.874 123.795 109.138C119.235 110.532 114.677 111.947 110.536 114.406C109.508 115.017 108.477 115.632 107.621 116.464C106.645 117.412 105.974 117.344 105.16 116.199C102.499 112.454 100.333 108.441 98.4661 104.26C95.4917 97.5974 93.9587 90.5625 93.8227 83.3146C93.6142 72.1937 96.0518 61.6364 103.341 52.9967C106.958 48.7099 109.147 43.5719 112.846 39.417C115.789 36.1103 118.73 32.8162 122.116 29.9489C122.456 29.6606 122.809 29.3812 123.182 29.1389C124.647 28.1896 125.534 28.5824 125.656 30.3501C125.755 31.7819 125.704 33.2324 125.609 34.6674C125.394 37.9431 125.454 41.2207 125.426 44.4984C125.418 45.5175 125.848 45.9925 126.84 46.242C129.492 46.9093 132.084 47.8001 134.572 48.9262C139.945 51.3572 143.967 55.0998 145.359 61.0348C146.192 64.5835 148.55 66.6313 151.559 68.1961C152.263 68.5623 153.011 68.8423 153.731 69.179C155.69 70.0954 156.283 70.8467 155.882 72.8911C155.36 75.5553 154.826 78.2729 153.376 80.6354C151.995 82.8852 149.886 84.5274 148.094 86.4186C146.58 88.0157 144.321 88.3344 142.148 88.3913C139.913 88.4499 137.676 88.4117 135.439 88.4138C132.965 88.4162 130.737 89.0882 128.81 90.8733Z" fill="#6672FF"/>
<path d="M133.551 45.1525C133.461 46.2055 133.041 46.4346 132.142 46.1125C130.839 45.6454 129.505 45.2577 128.166 44.9041C127.363 44.6921 127.035 44.2754 127.044 43.436C127.055 42.3503 126.967 41.2612 126.874 40.1776C126.817 39.5251 127.047 39.0088 127.471 38.5629C129.314 36.6232 131.174 34.6969 133.239 32.989C133.791 32.5318 134.428 31.9232 135.226 32.4099C135.992 32.8774 135.853 33.6606 135.699 34.4191C134.98 37.9545 134.279 41.4934 133.551 45.1525Z" fill="#6672FF"/>
<path d="M131.458 130.531C128.146 131.915 124.871 133.101 121.81 134.771C117.662 137.035 114.439 140.027 113.849 145.039C113.755 145.842 113.296 145.989 112.626 145.986C109.545 145.973 106.463 145.962 103.381 145.975C102.503 145.978 102.105 145.576 102.096 144.721C102.036 138.991 102.115 133.24 104.48 127.897C107.177 121.803 112.137 118.155 118.312 116.019C120.979 115.096 123.781 114.551 126.205 112.968C127.918 111.849 129.517 110.599 131.065 109.272C132.171 108.325 133.359 107.492 134.859 107.347C136.174 107.219 137.504 107.212 138.205 108.658C138.893 110.076 138.596 111.351 137.564 112.505C136.298 113.921 134.793 115.065 133.34 116.269C131.886 117.474 130.41 118.654 129.121 120.042C128.764 120.428 128.273 120.751 128.296 121.405C128.794 121.837 129.321 121.6 129.832 121.472C136.081 119.901 140.618 116.113 143.68 110.55C144.826 108.469 145.653 106.212 146.619 104.033C147.306 102.482 148.001 100.942 149.399 99.8643C149.915 99.4665 150.445 99.1054 151.107 98.9995C152.739 98.7381 153.623 99.596 153.262 101.22C152.508 104.622 151.136 107.831 150.1 111.145C148.711 115.586 145.742 118.984 143.032 122.608C140.515 125.973 137.345 128.23 133.482 129.668C132.831 129.911 132.203 130.213 131.458 130.531Z" fill="#6672FF"/>
<path d="M63.8002 117.685C67.2898 120.346 71.0396 121.865 73.1864 121.506C73.3414 120.72 72.6997 120.364 72.2741 119.936C70.0289 117.674 67.4493 115.795 65.0587 113.699C64.3462 113.074 63.6581 112.421 63.1917 111.585C62.0866 109.606 63.3556 107.388 65.6216 107.349C66.9145 107.326 68.0524 107.824 69.0809 108.559C70.334 109.455 71.5692 110.377 72.7909 111.315C75.2652 113.214 78.003 114.543 81.005 115.414C86.4759 117.003 91.2429 119.739 94.7969 124.317C97.1839 127.391 98.1922 131.022 98.884 134.755C99.4743 137.939 99.5309 141.166 99.4688 144.4C99.4476 145.505 99.1175 146.024 97.9133 145.999C94.9317 145.939 91.9478 145.955 88.9655 145.992C88.0522 146.003 87.5476 145.683 87.4763 144.761C87.1571 140.631 84.5855 138.037 81.3873 135.893C77.4306 133.24 72.8688 131.859 68.5967 129.869C68.2816 129.722 67.9637 129.58 67.6425 129.447C59.6847 126.146 55.0479 119.745 51.6975 112.21C50.2451 108.943 49.159 105.526 48.2418 102.065C47.9917 101.122 47.5478 100.074 48.5557 99.3275C49.575 98.573 50.5528 99.1629 51.464 99.6884C52.6316 100.362 53.3561 101.445 53.9215 102.616C54.6986 104.226 55.4702 105.845 56.1139 107.511C57.6971 111.608 60.2182 114.974 63.8002 117.685Z" fill="#6672FF"/>
<path d="M145.099 98.682C145.945 98.323 146.683 98.2314 147.248 98.9204C147.862 99.6694 147.372 100.329 146.936 100.936C145.491 102.947 144.947 105.362 143.946 107.571C142.816 110.063 141.064 112.072 139.257 114.054C139.068 114.261 138.864 114.52 138.273 114.342C139.834 111.97 140.432 109.285 141.147 106.636C141.6 104.961 142.079 103.29 142.615 101.639C143.023 100.381 143.712 99.2996 145.099 98.682Z" fill="#6672FF"/>
<path d="M57.1738 99.2125C58.1895 100.175 58.6031 101.331 58.9998 102.516C60.0825 105.75 60.5761 109.167 62.0252 112.286C62.327 112.935 62.6601 113.57 62.8245 114.322C61.0374 112.92 59.5421 111.286 58.4048 109.323C57.3562 107.514 56.6956 105.534 55.8747 103.625C55.463 102.667 55.0349 101.721 54.4102 100.879C53.9556 100.266 53.4701 99.6414 54.1409 98.8995C54.728 98.25 55.4583 98.2977 56.1899 98.6233C56.5036 98.7629 56.7895 98.9647 57.1738 99.2125Z" fill="#6672FF"/>
<path d="M140.178 101.516C140.909 101.347 141.53 101.472 141.456 102.188C141.249 104.188 140.766 106.129 139.892 108.011C136.95 105.806 137.092 103.094 140.178 101.516Z" fill="#6672FF"/>
<path d="M63.7376 105.189C63.8618 106.823 62.2341 106.897 61.5793 108.297C60.7529 106.069 60.2438 104.18 60.0137 102.242C59.9079 101.352 60.6816 101.435 61.2913 101.619C62.9989 102.136 63.2955 103.656 63.7376 105.189Z" fill="#6672FF"/>
</svg>
