<svg width="30" height="32" viewBox="0 0 30 32" fill="none" xmlns="http://www.w3.org/2000/svg">
<path d="M4.91123 7.71709C5.49828 6.59628 6.43572 5.88481 7.57515 5.41525C8.22358 5.14804 8.90013 4.94196 9.5716 4.73086C9.84756 4.64411 9.93824 4.50662 9.95295 4.22393C10.0152 3.02807 9.72746 1.84952 9.78715 0.655572C9.79273 0.543945 9.78115 0.430832 9.79476 0.32039C9.83186 0.0193214 10.0348 -0.0787068 10.3144 0.0653795C10.3707 0.094357 10.4253 0.130352 10.4718 0.172258C11.8299 1.39476 13.1722 2.65148 14.0432 4.24773C14.5376 5.15363 15.0341 6.02658 15.7722 6.76236C15.8514 6.84131 15.9109 6.9388 15.9982 7.05191C15.7782 7.31347 15.5563 7.5677 15.3451 7.83002C13.7067 9.86508 12.7964 12.1832 12.5407 14.7368C12.2195 17.9434 13.0426 20.9132 14.6088 23.7208C14.9758 24.3787 15.3744 25.0133 15.8489 25.6043C16.1434 25.9712 16.13 26.0227 15.7563 26.3654C15.617 26.3322 15.5615 26.2093 15.4936 26.1109C14.5594 24.7563 13.1968 23.9681 11.6632 23.4146C11.0623 23.1977 10.4488 23.011 9.83394 22.8336C9.568 22.7568 9.46425 22.6331 9.47199 22.3589C9.49298 21.6163 9.59374 20.8771 9.49161 20.1286C9.38855 19.3733 9.24623 18.6322 8.92883 17.9344C8.52429 17.0451 7.76156 16.6573 6.79797 16.5641C6.0234 16.4893 5.25829 16.5961 4.49255 16.669C3.89912 16.7255 3.34343 16.6156 2.80215 16.3999C2.70823 16.3624 2.59135 16.3218 2.54145 16.2474C2.21101 15.7544 1.65958 15.5126 1.22736 15.1372C1.10549 15.0313 0.999324 14.8953 0.924844 14.754C0.574922 14.09 0.279323 13.4008 0.0557032 12.6893C-0.109398 12.164 0.0963521 11.8819 0.621881 11.6852C1.67992 11.2893 2.65556 10.7344 3.62379 10.1706C4.2185 9.8244 4.45532 9.2464 4.61299 8.63C4.69008 8.32864 4.76417 8.02677 4.91123 7.71709Z" fill="#6673FF"/>
<path d="M7.94698 1.41958C8.38042 1.80974 8.7891 2.18681 9.20818 2.55274C9.40489 2.72451 9.49093 2.91415 9.46241 3.17588C9.43432 3.43376 9.43883 3.69754 9.45732 3.95685C9.47531 4.2091 9.38853 4.34499 9.12463 4.40894C8.78949 4.49016 8.45859 4.59536 8.13634 4.71631C7.87308 4.81511 7.75534 4.73473 7.70253 4.48424C7.50809 3.56201 7.30123 2.64217 7.11523 1.71839C7.07273 1.5073 7.0044 1.2417 7.24068 1.10231C7.47645 0.963207 7.63588 1.19042 7.809 1.3057C7.85106 1.33371 7.88747 1.36964 7.94698 1.41958Z" fill="#6673FF"/>
<path d="M22.968 18.2177C22.1916 18.9942 22.0259 19.9596 21.9572 20.9486C21.9237 21.4308 21.9371 21.9182 21.9647 22.4013C21.9784 22.6391 21.8951 22.7186 21.6711 22.7847C20.4916 23.1331 19.3129 23.487 18.2418 24.1019C17.9758 24.2546 17.7093 24.4085 17.4878 24.6165C17.2354 24.8534 17.0619 24.8363 16.8515 24.5501C16.1631 23.6138 15.6029 22.6104 15.1201 21.5649C14.3508 19.899 13.9543 18.14 13.9192 16.3278C13.8652 13.5471 14.4957 10.9074 16.381 8.74717C17.3164 7.67529 17.8826 6.3906 18.8391 5.35172C19.6004 4.52492 20.3611 3.70128 21.2366 2.98435C21.3247 2.91226 21.4159 2.8424 21.5126 2.78181C21.8912 2.54445 22.1208 2.64266 22.1524 3.08465C22.1779 3.44265 22.1646 3.80535 22.1402 4.16415C22.0844 4.98321 22.1 5.80272 22.0929 6.62227C22.0907 6.87709 22.202 6.99585 22.4585 7.05823C23.1444 7.22508 23.8147 7.44783 24.4584 7.72938C25.848 8.33723 26.8881 9.27302 27.2483 10.757C27.4636 11.6443 28.0735 12.1563 28.8516 12.5476C29.0336 12.6391 29.2272 12.7092 29.4134 12.7934C29.92 13.0225 30.0734 13.2103 29.9698 13.7215C29.8348 14.3877 29.6965 15.0672 29.3215 15.6579C28.9644 16.2204 28.419 16.631 27.9554 17.1039C27.5639 17.5032 26.9796 17.5829 26.4178 17.5972C25.8397 17.6118 25.261 17.6022 24.6825 17.6028C24.0427 17.6034 23.4663 17.7714 22.968 18.2177Z" fill="#6673FF"/>
<path d="M24.194 6.78569C24.1707 7.04898 24.062 7.10625 23.8296 7.02571C23.4927 6.90893 23.1475 6.81198 22.8012 6.72356C22.5936 6.67056 22.5088 6.56638 22.511 6.3565C22.5139 6.08503 22.4912 5.8127 22.467 5.54178C22.4524 5.37862 22.5119 5.24952 22.6215 5.13805C23.0983 4.65305 23.5792 4.17138 24.1132 3.74435C24.2562 3.63004 24.4208 3.47785 24.6271 3.59954C24.8253 3.71644 24.7893 3.91229 24.7495 4.10193C24.5637 4.98592 24.3822 5.87076 24.194 6.78569Z" fill="#6673FF"/>
<path d="M23.6538 28.134C22.7972 28.48 21.9501 28.7765 21.1585 29.1942C20.0857 29.7602 19.252 30.5082 19.0995 31.7616C19.0751 31.9623 18.9565 31.999 18.7833 31.9983C17.9862 31.9951 17.1892 31.9923 16.3921 31.9954C16.1651 31.9963 16.062 31.8958 16.0597 31.682C16.0444 30.2491 16.0646 28.8112 16.6762 27.4754C17.3739 25.9515 18.6567 25.0394 20.2538 24.5054C20.9436 24.2747 21.6681 24.1384 22.2952 23.7425C22.7382 23.4628 23.1516 23.1502 23.5521 22.8185C23.8382 22.5815 24.1454 22.3734 24.5332 22.337C24.8734 22.3051 25.2175 22.3034 25.3988 22.6648C25.5767 23.0194 25.4997 23.3383 25.233 23.6267C24.9056 23.9808 24.5161 24.2669 24.1405 24.5679C23.7644 24.8693 23.3826 25.1643 23.0494 25.5113C22.9569 25.6077 22.83 25.6886 22.836 25.8522C22.9647 25.96 23.1009 25.9009 23.2332 25.8687C24.8493 25.4761 26.0228 24.5288 26.8148 23.1378C27.1111 22.6175 27.325 22.0533 27.5749 21.5083C27.7526 21.1208 27.9324 20.7355 28.2939 20.4661C28.4274 20.3666 28.5643 20.2764 28.7355 20.2499C29.1578 20.1845 29.3862 20.399 29.2931 20.8052C29.098 21.6556 28.7432 22.4582 28.4751 23.2867C28.1158 24.3971 27.3481 25.2469 26.6471 26.1529C25.9961 26.9944 25.1763 27.5587 24.1773 27.9182C24.0089 27.9788 23.8463 28.0543 23.6538 28.134Z" fill="#6673FF"/>
<path d="M6.15448 24.9219C7.057 25.5874 8.02682 25.9671 8.58204 25.8774C8.62215 25.6809 8.45617 25.5919 8.3461 25.4847C7.76543 24.9191 7.09825 24.4494 6.47997 23.9252C6.29568 23.769 6.11773 23.6057 5.99709 23.3968C5.71129 22.9019 6.03948 22.3474 6.62555 22.3375C6.95994 22.3318 7.25424 22.4564 7.52023 22.6402C7.84433 22.8641 8.16378 23.0946 8.47976 23.3291C9.1197 23.8041 9.82778 24.1363 10.6042 24.3542C12.0192 24.7514 13.2521 25.4356 14.1712 26.5801C14.7886 27.3488 15.0494 28.2568 15.2283 29.1901C15.381 29.9863 15.3956 30.7932 15.3796 31.6017C15.3741 31.878 15.2887 32.0078 14.9772 32.0016C14.2061 31.9865 13.4344 31.9904 12.6631 31.9997C12.4268 32.0026 12.2963 31.9226 12.2779 31.6919C12.1953 30.6593 11.5302 30.0108 10.7031 29.4747C9.67974 28.8113 8.4999 28.4661 7.39501 27.9684C7.3135 27.9316 7.23129 27.8962 7.14823 27.8629C5.09007 27.0374 3.89085 25.4371 3.02433 23.5529C2.64868 22.7361 2.36778 21.8817 2.13055 21.0164C2.06588 20.7805 1.95108 20.5184 2.21175 20.3319C2.47537 20.1432 2.72827 20.2907 2.96393 20.4221C3.26591 20.5905 3.45328 20.8614 3.59951 21.1542C3.80049 21.5567 4.00007 21.9615 4.16653 22.378C4.57602 23.4024 5.22806 24.2441 6.15448 24.9219Z" fill="#6673FF"/>
<path d="M27.1834 20.1705C27.4022 20.0808 27.593 20.0578 27.7391 20.2301C27.898 20.4174 27.771 20.5824 27.6583 20.7342C27.2847 21.237 27.144 21.8409 26.885 22.3932C26.5929 23.0162 26.1398 23.5184 25.6723 24.0141C25.6234 24.0659 25.5706 24.1306 25.418 24.086C25.8215 23.493 25.9761 22.8216 26.1611 22.1594C26.2782 21.7404 26.4021 21.3227 26.5407 20.91C26.6464 20.5954 26.8246 20.3249 27.1834 20.1705Z" fill="#6673FF"/>
<path d="M4.44017 20.3031C4.70285 20.5439 4.80981 20.8328 4.91243 21.1292C5.19244 21.9378 5.3201 22.7921 5.6949 23.572C5.77294 23.7343 5.8591 23.8931 5.90162 24.0811C5.43942 23.7305 5.05268 23.322 4.75853 22.8313C4.48733 22.3788 4.31649 21.8838 4.10418 21.4064C3.99769 21.1669 3.88698 20.9304 3.72539 20.7199C3.60783 20.5667 3.48226 20.4104 3.65575 20.2249C3.8076 20.0625 3.99647 20.0744 4.1857 20.1558C4.26682 20.1907 4.34078 20.2412 4.44017 20.3031Z" fill="#6673FF"/>
<path d="M25.9094 20.88C26.0986 20.8378 26.2592 20.8689 26.24 21.0481C26.1865 21.548 26.0615 22.0335 25.8356 22.5039C25.0746 21.9527 25.1113 21.2746 25.9094 20.88Z" fill="#6673FF"/>
<path d="M6.13752 21.7975C6.16965 22.2059 5.74867 22.2244 5.57932 22.5746C5.36558 22.0174 5.23392 21.5451 5.1744 21.0606C5.14705 20.8379 5.34715 20.8586 5.50484 20.9048C5.94648 21.0341 6.02319 21.414 6.13752 21.7975Z" fill="#6673FF"/>
</svg>
