<svg width="328" height="100" viewBox="0 0 328 100" fill="none" xmlns="http://www.w3.org/2000/svg">
<rect width="328" height="100" fill="white"/>
<path d="M103.287 50.103C103.287 72.251 85.3301 90.207 63.1835 90.207C41.0328 90.207 23.0781 72.251 23.0781 50.103C23.0781 27.9564 41.0328 10.0004 63.1835 10.0004C85.3301 10.0004 103.287 27.9564 103.287 50.103Z" fill="white"/>
<path d="M81.9927 47.3091C75.618 42.9758 67.4567 44.7398 63.166 51.2545C59.5967 56.6985 54.1954 57.3771 52.1127 57.3771C45.2887 57.3771 40.6314 52.5785 39.2487 47.6185H39.2447C39.2274 47.5638 39.218 47.5198 39.2047 47.4758C39.1914 47.4211 39.1807 47.3665 39.1634 47.3091C38.618 45.2345 38.4807 44.2518 38.4807 42.0505C38.4807 30.1905 50.658 16.9811 68.1807 16.9811C86.1314 16.9811 96.406 30.6465 99.0607 38.2425C99.0087 38.1025 98.9647 37.9731 98.922 37.8385C93.8287 22.9838 79.742 12.3051 63.1487 12.3051C42.2847 12.3051 25.3594 29.2211 25.3594 50.1011C25.3594 68.7625 38.8167 84.7305 57.4914 84.7305C72.3767 84.7305 82.3847 76.3891 86.9674 64.8798C89.4874 58.5851 87.7074 51.1918 81.9927 47.3091Z" fill="#003863"/>
<path d="M99.2925 38.9777C97.0778 31.567 86.7378 16.9803 68.1805 16.9803C50.6578 16.9803 38.4805 30.191 38.4805 42.0497C38.4805 44.251 38.6191 45.2337 39.1631 47.3083C38.9338 46.399 38.8178 45.4977 38.8178 44.6123C38.8178 32.2563 51.1845 23.7003 63.8991 23.7003C81.1151 23.7003 95.0671 37.6523 95.0671 54.8617C95.0671 68.3497 87.3018 80.0337 76.0271 85.643V85.6523C90.5685 80.387 100.951 66.4563 100.951 50.1003C100.951 46.2283 100.431 42.8163 99.2925 38.9777Z" fill="#E4032E"/>
<path d="M146.837 51.4803H142.716V31.8617H146.837V39.6523H150.505V31.8217H154.792V51.9763H150.505V43.691H146.837V51.4803ZM146.92 60.7137C146.92 59.5603 146.494 58.5577 145.642 57.7043C144.79 56.8523 143.773 56.4283 142.592 56.4283C141.41 56.4283 140.4 56.8523 139.562 57.7043C138.725 58.5577 138.305 59.5603 138.305 60.7137C138.305 61.8683 138.725 62.863 139.562 63.7017C140.4 64.539 141.41 64.9577 142.592 64.9577C143.773 64.9577 144.79 64.539 145.642 63.7017C146.494 62.863 146.92 61.8683 146.92 60.7137ZM151.289 60.755C151.289 61.8537 151.056 62.8923 150.588 63.8657C150.121 64.8417 149.502 65.7003 148.733 66.443C147.936 67.1843 147.016 67.775 145.972 68.215C144.926 68.655 143.814 68.875 142.633 68.875C141.45 68.875 140.332 68.655 139.274 68.215C138.216 67.775 137.289 67.1843 136.492 66.443C135.722 65.7003 135.104 64.8417 134.637 63.8657C134.17 62.8923 133.937 61.8537 133.937 60.755C133.937 59.6563 134.17 58.6123 134.637 57.6217C135.104 56.6323 135.722 55.7683 136.492 55.0257C137.289 54.2843 138.216 53.6937 139.274 53.2537C140.332 52.8137 141.45 52.5937 142.633 52.5937C143.814 52.5937 144.926 52.8137 145.972 53.2537C147.016 53.6937 147.936 54.2843 148.733 55.0257C149.502 55.7683 150.121 56.6323 150.588 57.6217C151.056 58.6123 151.289 59.6563 151.289 60.755ZM135.544 46.2057C135.544 45.1337 135.152 44.207 134.369 43.423C133.586 42.6403 132.645 42.2483 131.546 42.2483C130.446 42.2483 129.512 42.6403 128.744 43.423C127.974 44.207 127.589 45.1337 127.589 46.2057C127.589 47.2777 127.974 48.1977 128.744 48.967C129.512 49.7363 130.446 50.1217 131.546 50.1217C132.645 50.1217 133.586 49.7363 134.369 48.967C135.152 48.1977 135.544 47.2777 135.544 46.2057ZM139.706 46.247C139.706 47.291 139.486 48.267 139.048 49.175C138.608 50.079 138.017 50.8777 137.276 51.563C136.533 52.251 135.674 52.7937 134.7 53.1923C133.724 53.5897 132.672 53.7883 131.546 53.7883C130.42 53.7883 129.368 53.5897 128.393 53.1923C127.417 52.7937 126.56 52.251 125.817 51.563C125.076 50.8777 124.484 50.079 124.045 49.175C123.605 48.267 123.386 47.291 123.386 46.247C123.386 45.203 123.605 44.2203 124.045 43.299C124.484 42.379 125.076 41.575 125.817 40.8897C126.56 40.2017 127.417 39.6603 128.393 39.2603C129.368 38.8617 130.42 38.6643 131.546 38.6643C132.672 38.6643 133.724 38.8617 134.7 39.2603C135.674 39.6603 136.533 40.2017 137.276 40.8897C138.017 41.575 138.608 42.379 139.048 43.299C139.486 44.2203 139.706 45.203 139.706 46.247ZM129.156 34.0883V31.079H133.896V34.0883H140.49V37.7977H121.818V34.0883H129.156Z" fill="#575756"/>
<path d="M187.105 50.863V43.0723H180.427V39.239H187.105V31.8217H191.555V50.863H187.105ZM184.137 60.055C184.137 58.7083 183.643 57.547 182.654 56.571C181.665 55.5963 180.495 55.1083 179.15 55.1083C177.803 55.1083 176.642 55.5963 175.667 56.571C174.691 57.547 174.205 58.7083 174.205 60.055C174.205 61.4003 174.691 62.555 175.667 63.5163C176.642 64.4777 177.803 64.9577 179.15 64.9577C180.495 64.9577 181.665 64.4777 182.654 63.5163C183.643 62.555 184.137 61.4003 184.137 60.055ZM188.506 60.095C188.506 61.3043 188.259 62.4377 187.765 63.4963C187.27 64.5537 186.61 65.4803 185.786 66.279C184.934 67.0737 183.938 67.707 182.798 68.1737C181.658 68.6403 180.454 68.875 179.191 68.875C177.927 68.875 176.718 68.6403 175.565 68.1737C174.41 67.707 173.407 67.0737 172.555 66.279C171.731 65.4803 171.071 64.5537 170.577 63.4963C170.082 62.4377 169.835 61.3043 169.835 60.095C169.835 58.887 170.082 57.7457 170.577 56.6737C171.071 55.603 171.731 54.6683 172.555 53.8723C173.407 53.075 174.41 52.4443 175.565 51.9763C176.718 51.5083 177.927 51.2763 179.191 51.2763C180.454 51.2763 181.658 51.5083 182.798 51.9763C183.938 52.4443 184.934 53.075 185.786 53.8723C186.61 54.6683 187.27 55.603 187.765 56.6737C188.259 57.7457 188.506 58.887 188.506 60.095ZM159.985 36.6843V32.851H180.593V36.6843H171.814L180.965 47.8537L177.831 50.4097L170.494 41.2603L163.199 51.027L159.943 48.3897L169.053 36.6843H159.985Z" fill="#575756"/>
<path d="M226.795 54.8209H222.343V31.8222H226.795V39.6529H231.947V44.0635H226.795V54.8209ZM212.906 41.9209C212.906 41.1235 212.747 40.3675 212.431 39.6529C212.115 38.9395 211.695 38.3062 211.174 37.7569C210.625 37.2355 209.999 36.8169 209.298 36.4995C208.598 36.1835 207.85 36.0249 207.053 36.0249C206.255 36.0249 205.501 36.1835 204.786 36.4995C204.071 36.8169 203.439 37.2355 202.89 37.7569C202.367 38.3062 201.949 38.9395 201.633 39.6529C201.317 40.3675 201.159 41.1235 201.159 41.9209C201.159 42.7169 201.317 43.4649 201.633 44.1662C201.949 44.8662 202.367 45.4929 202.89 46.0409C203.439 46.5635 204.071 46.9822 204.786 47.2982C205.501 47.6155 206.255 47.7729 207.053 47.7729C207.85 47.7729 208.598 47.6155 209.298 47.2982C209.999 46.9822 210.625 46.5635 211.174 46.0409C211.695 45.4929 212.115 44.8662 212.431 44.1662C212.747 43.4649 212.906 42.7169 212.906 41.9209ZM203.549 55.0262V63.0635H227.702V67.0195H199.098V55.0262H203.549ZM217.191 41.8782C217.191 43.2249 216.923 44.4902 216.387 45.6715C215.851 46.8515 215.117 47.8969 214.183 48.8022C213.249 49.6822 212.17 50.3835 210.947 50.9049C209.725 51.4262 208.413 51.6875 207.011 51.6875C205.61 51.6875 204.297 51.4262 203.075 50.9049C201.851 50.3835 200.773 49.6822 199.839 48.8022C198.906 47.8969 198.17 46.8515 197.634 45.6715C197.099 44.4902 196.83 43.2249 196.83 41.8782C196.83 40.5329 197.099 39.2689 197.634 38.0862C198.17 36.9049 198.906 35.8609 199.839 34.9555C200.773 34.0742 201.851 33.3742 203.075 32.8515C204.297 32.3302 205.61 32.0689 207.011 32.0689C208.413 32.0689 209.725 32.3302 210.947 32.8515C212.17 33.3742 213.249 34.0742 214.183 34.9555C215.117 35.8609 215.851 36.9049 216.387 38.0862C216.923 39.2689 217.191 40.5329 217.191 41.8782Z" fill="#575756"/>
<path d="M262.282 54.8209V44.2275H255.605V40.2702H262.282V31.8222H266.733V54.8209H262.282ZM237.636 67.0195V55.0262H242.086V63.0635H267.064V67.0195H237.636ZM235.162 36.6849V32.8515H255.77V36.6849H247.032L256.141 50.1235L252.761 52.3889L245.672 41.5902L238.584 52.6782L235.121 50.3689L244.189 36.6849H235.162Z" fill="#575756"/>
<path d="M298.799 40.8454H279.923V45.7908H298.799V40.8454ZM279.923 36.9708H298.799V32.4387H303.21V49.7081H275.514V32.4387H279.923V36.9708ZM272.875 54.5294H305.848V58.4854H291.587V67.7188H287.095V58.4854H272.875V54.5294Z" fill="#575756"/>
</svg>
