<?xml version="1.0" encoding="UTF-8" standalone="no"?>
<svg
   xmlns:dc="http://purl.org/dc/elements/1.1/"
   xmlns:cc="http://creativecommons.org/ns#"
   xmlns:rdf="http://www.w3.org/1999/02/22-rdf-syntax-ns#"
   xmlns:svg="http://www.w3.org/2000/svg"
   xmlns="http://www.w3.org/2000/svg"
   viewBox="0 0 242.34399 67.69693"
   height="67.69693"
   width="242.34399"
   xml:space="preserve"
   id="svg2"
   version="1.1"><metadata
     id="metadata8"><rdf:RDF><cc:Work
         rdf:about=""><dc:format>image/svg+xml</dc:format><dc:type
           rdf:resource="http://purl.org/dc/dcmitype/StillImage" /></cc:Work></rdf:RDF></metadata><defs
     id="defs6"><clipPath
       id="clipPath18"
       clipPathUnits="userSpaceOnUse"><path
         id="path16"
         d="M 0,50.773 H 181.758 V 0 H 0 Z" /></clipPath></defs><g
     transform="matrix(1.3333333,0,0,-1.3333333,0,67.696933)"
     id="g10"><g
       id="g12"><g
         clip-path="url(#clipPath18)"
         id="g14"><g
           transform="translate(75.5,22.8186)"
           id="g20"><path
             id="path22"
             style="fill:#dc2930;fill-opacity:1;fill-rule:nonzero;stroke:none"
             d="m 0,0 h -3.72 c -1,-4.06 -5.79,-6.11 -7.55,-6.37 h 0.01 l 0.92,-1.36 c 3.224,0.601 6.187,2.175 8.49,4.51 2.298,-2.336 5.258,-3.911 8.48,-4.51 l 0.93,1.36 C 5.79,-6.11 0.98,-4.06 0,0" /></g><g
           transform="translate(35.19,46.5426)"
           id="g24"><path
             id="path26"
             style="fill:#dc2930;fill-opacity:1;fill-rule:nonzero;stroke:none"
             d="m 0,0 c -5.681,5.64 -14.849,5.64 -20.53,0 l -10.43,-10.43 c -5.64,-5.681 -5.64,-14.849 0,-20.53 l 10.43,-10.43 c 5.677,-5.651 14.853,-5.651 20.53,0 l 10.43,10.43 c 5.651,5.677 5.651,14.853 0,20.53 z" /></g><g
           transform="translate(75.39,27.4185)"
           id="g28"><path
             id="path30"
             style="fill:#dc2930;fill-opacity:1;fill-rule:nonzero;stroke:none"
             d="M 0,0 H 7 V 1.53 H -6.21 c -0.425,-0.006 -0.774,0.335 -0.78,0.76 0,0.003 0,0.007 0,0.01 V 3.64 H 6.75 v 5.18 h -17 V 7.31 H 3.44 V 5.22 H -10.28 V 1.56 c -0.006,-0.839 0.671,-1.524 1.51,-1.53 0.007,0 0.013,0 0.02,0 h 5.44 v -2.11 h -8.76 V -3.69 H 8.82 v 1.58 l -8.82,0 z" /></g><path
           id="path32"
           style="fill:#dc2930;fill-opacity:1;fill-rule:nonzero;stroke:none"
           d="m 104.44,15.189 h 3.2 v 21.41 h -3.2 z" /><g
           transform="translate(99.32,28.8886)"
           id="g34"><path
             id="path36"
             style="fill:#dc2930;fill-opacity:1;fill-rule:nonzero;stroke:none"
             d="M 0,0 H -4 V -1.91 H 0 V -6.4 c -0.798,-0.332 -1.656,-0.496 -2.52,-0.48 h -4.53 c -0.425,0 -0.77,0.345 -0.77,0.77 V 4.53 h 5.84 v 1.54 h -9.15 v -13 c 0.022,-0.825 0.694,-1.485 1.52,-1.49 h 7.1 c 0.874,-0.049 1.745,0.142 2.52,0.55 L 0,-13.7 H 3.2 V 7.71 l -3.2,0 z" /></g><g
           transform="translate(24.35,38.9926)"
           id="g38"><path
             id="path40"
             style="fill:#ffffff;fill-opacity:1;fill-rule:nonzero;stroke:none"
             d="m 0,0 c -0.773,0.03 -1.523,-0.264 -2.07,-0.81 -1.18,-1.17 -1.8,-3.6 -1.75,-6.83 0.07,-4 1,-11.79 4.15,-15.81 0.452,-0.602 0.999,-1.125 1.62,-1.55 0.617,-0.465 1.368,-0.718 2.14,-0.72 0.282,-0.001 0.563,0.026 0.84,0.08 1.79,0.43 4,2.43 5.71,5.09 0.259,0.4 0.703,0.641 1.18,0.64 0.258,0.001 0.512,-0.072 0.73,-0.21 0.642,-0.411 0.838,-1.26 0.44,-1.91 -2.12,-3.36 -4.91,-5.72 -7.48,-6.32 H 5.45 c -0.452,-0.086 -0.91,-0.13 -1.37,-0.13 -1.309,0.01 -2.583,0.422 -3.65,1.18 -0.871,0.589 -1.641,1.315 -2.28,2.15 -4.41,5.67 -4.71,16.28 -4.73,17.47 -0.05,2.83 0.36,6.66 2.56,8.84 1.059,1.059 2.503,1.64 4,1.61 h 0.26 c 1.497,0.029 2.941,-0.552 4,-1.61 2.2,-2.18 2.61,-6 2.56,-8.84 -0.034,-4.817 -1.287,-9.547 -3.64,-13.75 -0.34,-0.688 -1.174,-0.97 -1.862,-0.63 -0.688,0.341 -0.97,1.175 -0.63,1.863 0.033,0.065 0.07,0.128 0.112,0.187 2.188,3.755 3.312,8.035 3.25,12.38 C 4.09,-4.4 3.47,-1.97 2.28,-0.8 1.738,-0.252 0.99,0.042 0.22,0.01 Z m -5.61,-28.47 c -0.828,-0.001 -1.508,0.653 -1.54,1.48 -0.028,0.851 0.63,1.567 1.48,1.61 0.851,0.094 1.617,-0.519 1.712,-1.37 0.094,-0.85 -0.519,-1.617 -1.37,-1.711 -0.07,-0.008 -0.141,-0.011 -0.212,-0.009 z" /></g><g
           transform="translate(118.7119,34.9523)"
           id="g42"><path
             id="path44"
             style="fill:#dc2930;fill-opacity:1;fill-rule:nonzero;stroke:none"
             d="m 0,0 c 0.686,-0.338 1.019,-0.984 1.019,-2.019 0,-0.636 -0.054,-0.862 -0.268,-1.241 -0.601,-1.035 -2.263,-1.24 -3.11,-0.4 -0.772,0.769 -0.75,2.543 0.032,3.363 C -1.791,0.256 -0.804,0.39 0,0 m -2.466,1.497 c -1.512,-0.308 -2.884,-1.302 -3.26,-2.358 -0.268,-0.748 -0.225,-1.825 0.086,-2.471 0.729,-1.496 2.745,-2.388 5.093,-2.255 2.702,0.154 4.471,1.456 4.6,3.404 0.054,0.963 -0.236,1.711 -0.954,2.419 -1.19,1.168 -3.496,1.691 -5.565,1.261" /></g><g
           transform="translate(124.5019,31.2312)"
           id="g46"><path
             id="path48"
             style="fill:#dc2930;fill-opacity:1;fill-rule:nonzero;stroke:none"
             d="M 0,0 V -5.279 H -1.876 -3.753 V -6.048 -6.817 H -1.876 0 v -0.359 -0.358 h 1.555 1.554 v 6.406 6.407 H 1.555 0 Z" /></g><g
           transform="translate(129.5413,30.0524)"
           id="g50"><path
             id="path52"
             style="fill:#dc2930;fill-opacity:1;fill-rule:nonzero;stroke:none"
             d="M 0,0 V -6.356 H 1.555 3.109 V 0 6.356 H 1.555 0 Z" /></g><g
           transform="translate(149.6989,33.0559)"
           id="g54"><path
             id="path56"
             style="fill:#dc2930;fill-opacity:1;fill-rule:nonzero;stroke:none"
             d="M 0,0 C 0,-1.322 -0.15,-3.157 -0.332,-3.998 L -0.44,-4.541 h -2.466 -2.455 v 2.87 2.87 h 2.68 L 0,1.199 Z M -11.365,1.968 V 1.199 h 1.393 1.394 v -2.87 -2.87 h -1.554 -1.555 V -5.31 -6.079 h 8.846 8.845 v 0.769 0.769 H 4.332 c -1.555,0 -1.673,0.01 -1.598,0.184 0.322,0.81 0.408,1.425 0.45,3.434 L 3.238,1.199 H 4.514 5.79 v 0.769 0.769 h -8.578 -8.577 z" /></g><g
           transform="translate(162.6942,30.934)"
           id="g58"><path
             id="path60"
             style="fill:#dc2930;fill-opacity:1;fill-rule:nonzero;stroke:none"
             d="m 0,0 c 0.032,-4.531 0.043,-4.664 0.257,-4.951 0.515,-0.677 0.15,-0.646 8.6,-0.646 h 7.634 v 0.769 0.769 h -6.477 c -5.747,0 -6.497,0.02 -6.647,0.164 -0.15,0.133 -0.172,0.604 -0.172,3.587 v 3.424 h 6.487 6.487 V 3.885 4.654 H 8.074 -0.032 Z" /></g><g
           transform="translate(112.1714,27.5409)"
           id="g62"><path
             id="path64"
             style="fill:#dc2930;fill-opacity:1;fill-rule:nonzero;stroke:none"
             d="m 0,0 v -0.769 h 1.876 1.877 v -1.384 -1.384 h 1.554 1.555 v 1.384 1.384 h 2.091 2.091 V 0 0.769 H 5.522 L 0,0.769 Z" /></g><g
           transform="translate(136.189,23.133)"
           id="g66"><path
             id="path68"
             style="fill:#dc2930;fill-opacity:1;fill-rule:nonzero;stroke:none"
             d="m 0,0 v -0.769 h 4.611 4.61 v -3.485 -3.485 h 1.662 1.662 v 3.485 3.485 h 4.61 4.611 V 0 0.769 H 10.883 L 0,0.769 Z" /></g><g
           transform="translate(115.9241,22.2104)"
           id="g70"><path
             id="path72"
             style="fill:#dc2930;fill-opacity:1;fill-rule:nonzero;stroke:none"
             d="m 0,0 v -0.769 h 6.809 6.808 V -1.538 -2.306 H 6.798 -0.021 l 0.042,-1.815 c 0.043,-2.03 0.108,-2.276 0.719,-2.665 l 0.364,-0.236 h 7.967 7.977 v 0.769 0.769 H 10.39 c -4.375,0 -6.723,0.041 -6.862,0.102 -0.172,0.093 -0.204,0.226 -0.204,0.82 v 0.718 h 6.701 6.702 v 2.306 2.307 H 8.363 L 0,0.769 Z" /></g><g
           transform="translate(160.0994,20.2628)"
           id="g74"><path
             id="path76"
             style="fill:#dc2930;fill-opacity:1;fill-rule:nonzero;stroke:none"
             d="m 0,0 v -0.769 h 10.829 10.83 V 0 0.769 H 10.829 0 Z" /></g></g></g></g></svg>